#!OML:ASF X:\für Bonn\!DataBase\2005_08_12_Daniel\c3d\Daniel.ASF
:FULLY-SPECIFIED
:DEGREES
123
root -2.76841 10.9632 -2.83351 319.234 -82.4925 -341.628
lowerback 44.4031 -3.74056 0.0289764
upperback 4.68975 -6.03958 -2.73959
thorax -15.9731 -2.96011 0.0398018
lowerneck 0.29018 1.92901 -3.76957
upperneck 0.938537 2.55736 0.907705
head 0.177752 1.26599 0.899493
rclavicle -3.926e-014 -6.36111e-015
rhumerus 63.489 0.446415 -95.3601
rradius 12.3759
rwrist 62.1887
rhand -18.3001 14.8402
rfingers 7.12502
rthumb 7.98069 -14.9891
lclavicle -3.926e-014 -6.36111e-015
lhumerus 69.1775 -4.34412 81.8246
lradius 11.3501
lwrist -53.098
lhand -15.2798 2.70619
lfingers 7.12502
lthumb 10.8949 32.4036
rfemur -30.1827 -45.4998 -26.7246
rtibia 119.367
rfoot -1.71429 47.1862
rtoes 4.78775
lfemur -48.8786 24.4241 -3.03264
ltibia 115.681
lfoot -8.13921 -44.435
ltoes 15.3813
124
root -2.77378 11.1498 -2.83111 319.319 -82.4494 -341.37
lowerback 43.8777 -3.72689 -0.0333369
upperback 4.63599 -6.031 -2.74075
thorax -15.8708 -2.951 0.0458065
lowerneck 0.176942 1.9319 -3.79713
upperneck 1.0315 2.56618 0.883898
head 0.224648 1.2693 0.898826
rclavicle 9.93923e-016 1.07344e-014
rhumerus 63.3625 0.26564 -95.8284
rradius 12.2789
rwrist 62.8217
rhand -18.4287 14.7739
rfingers 7.12502
rthumb 7.85662 -15.0601
lclavicle 9.93923e-016 1.07344e-014
lhumerus 69.0911 -4.41552 81.653
lradius 11.3118
lwrist -53.066
lhand -15.1482 2.92017
lfingers 7.12502
lthumb 11.0218 32.6108
rfemur -30.6636 -43.7755 -24.1404
rtibia 117.639
rfoot -3.06702 45.6146
rtoes 4.42489
lfemur -47.9304 23.4978 -3.72678
ltibia 113.935
lfoot -9.02827 -43.8548
ltoes 15.257
125
root -2.77948 11.3337 -2.82832 319.437 -82.389 -341.139
lowerback 43.3302 -3.72215 -0.0865164
upperback 4.5824 -6.02705 -2.73695
thorax -15.7585 -2.9445 0.0536572
lowerneck 0.0708695 1.92974 -3.85422
upperneck 1.14305 2.56809 0.854941
head 0.275956 1.26865 0.90169
rclavicle 4.56211e-014 2.78299e-014
rhumerus 63.1491 0.115096 -96.2029
rradius 12.3426
rwrist 63.3317
rhand -18.4797 14.6005
rfingers 7.12502
rthumb 7.80732 -15.2353
lclavicle 4.56211e-014 2.78299e-014
lhumerus 68.9665 -4.40024 81.7745
lradius 11.2812
lwrist -53.3214
lhand -14.9632 3.07891
lfingers 7.12502
lthumb 11.2003 32.76
rfemur -30.8904 -42.1779 -21.8704
rtibia 115.891
rfoot -4.39555 44.1464
rtoes 4.00016
lfemur -46.9991 22.6203 -4.40866
ltibia 112.186
lfoot -9.92324 -43.2768
ltoes 14.9859
126
root -2.78528 11.518 -2.82577 319.498 -82.3432 -340.877
lowerback 42.8352 -3.71782 -0.134206
upperback 4.50854 -6.02397 -2.74568
thorax -15.6867 -2.9375 0.048132
lowerneck -0.0100737 1.9275 -3.91025
upperneck 1.23584 2.56888 0.8435
head 0.31724 1.26764 0.909426
rclavicle 2.54941e-014 -1.59028e-015
rhumerus 62.9446 -0.0589756 -96.6283
rradius 12.3372
rwrist 63.8803
rhand -18.5798 14.4418
rfingers 7.12502
rthumb 7.71071 -15.3976
lclavicle 2.54941e-014 -1.59028e-015
lhumerus 68.8129 -4.3882 81.8489
lradius 11.2354
lwrist -53.5529
lhand -14.7641 3.18103
lfingers 7.12502
lthumb 11.3922 32.8516
rfemur -30.9462 -40.6332 -19.8002
rtibia 114.103
rfoot -5.65748 42.7083
rtoes 3.70073
lfemur -46.006 21.8016 -5.03229
ltibia 110.409
lfoot -10.746 -42.725
ltoes 14.8376
127
root -2.79157 11.7017 -2.82226 319.587 -82.2989 -340.625
lowerback 42.3327 -3.72318 -0.171022
upperback 4.43213 -6.0264 -2.74884
thorax -15.6129 -2.93336 0.0453324
lowerneck -0.122359 1.92666 -3.91798
upperneck 1.32913 2.57339 0.779861
head 0.365014 1.26842 0.893143
rclavicle 4.9398e-014 -7.95139e-016
rhumerus 62.7514 -0.170097 -96.9508
rradius 12.3516
rwrist 64.2929
rhand -18.6324 14.2019
rfingers 7.12502
rthumb 7.66001 -15.6394
lclavicle 4.9398e-014 -7.95139e-016
lhumerus 68.6579 -4.30497 82.0647
lradius 11.1885
lwrist -53.9145
lhand -14.5971 3.25882
lfingers 7.12502
lthumb 11.5533 32.9204
rfemur -30.8488 -39.2049 -17.9248
rtibia 112.284
rfoot -6.86996 41.3263
rtoes 3.29213
lfemur -45.0387 21.0365 -5.63708
ltibia 108.618
lfoot -11.545 -42.1944
ltoes 14.6713
128
root -2.79886 11.8863 -2.81805 319.678 -82.2494 -340.358
lowerback 41.8057 -3.73053 -0.178096
upperback 4.36007 -6.02067 -2.7715
thorax -15.5281 -2.92825 0.000328817
lowerneck -0.246948 1.90485 -3.87603
upperneck 1.40555 2.55049 0.71362
head 0.410911 1.25598 0.867673
rclavicle 5.2181e-014 -6.75868e-015
rhumerus 62.6269 -0.385765 -97.4007
rradius 12.2941
rwrist 64.8721
rhand -18.6849 13.9675
rfingers 7.12502
rthumb 7.60927 -15.8756
lclavicle 5.2181e-014 -6.75868e-015
lhumerus 68.487 -4.17327 82.5143
lradius 11.1864
lwrist -54.5387
lhand -14.4206 3.20573
lfingers 7.12502
lthumb 11.7236 32.8577
rfemur -30.6483 -37.8857 -16.2287
rtibia 110.435
rfoot -8.12656 40.0218
rtoes 2.80058
lfemur -44.087 20.3093 -6.25274
ltibia 106.807
lfoot -12.3889 -41.6166
ltoes 14.4414
129
root -2.80553 12.0721 -2.81282 319.888 -82.2126 -340.235
lowerback 41.3119 -3.74485 -0.173273
upperback 4.28609 -6.01658 -2.77733
thorax -15.4525 -2.92411 -0.0302612
lowerneck -0.360643 1.88823 -3.83845
upperneck 1.46787 2.53404 0.64318
head 0.450506 1.2468 0.841415
rclavicle 9.19379e-015 1.63003e-014
rhumerus 62.5495 -0.590382 -97.8998
rradius 12.196
rwrist 65.4845
rhand -18.6859 13.7859
rfingers 7.12502
rthumb 7.60832 -16.0572
lclavicle 9.19379e-015 1.63003e-014
lhumerus 68.3365 -3.98781 83.0039
lradius 11.1622
lwrist -55.1923
lhand -14.2349 3.07781
lfingers 7.12502
lthumb 11.9026 32.7195
rfemur -30.3082 -36.638 -14.6616
rtibia 108.543
rfoot -9.31809 38.7242
rtoes 2.38143
lfemur -43.091 19.592 -6.81755
ltibia 104.962
lfoot -13.1553 -41.0221
ltoes 14.2252
130
root -2.81221 12.259 -2.80913 320.059 -82.1791 -340.066
lowerback 40.8246 -3.75509 -0.175171
upperback 4.18733 -6.00996 -2.78378
thorax -15.4057 -2.9171 -0.0583503
lowerneck -0.388872 1.87888 -3.86964
upperneck 1.51657 2.52315 0.64201
head 0.470076 1.2405 0.847118
rclavicle 2.05245e-014 3.57812e-015
rhumerus 62.5113 -0.776922 -98.2996
rradius 12.0029
rwrist 66.0255
rhand -18.6749 13.6321
rfingers 7.12502
rthumb 7.61893 -16.2107
lclavicle 2.05245e-014 3.57812e-015
lhumerus 68.1966 -3.78426 83.5648
lradius 11.0493
lwrist -55.8377
lhand -14.1803 2.90774
lfingers 7.12502
lthumb 11.9553 32.5463
rfemur -29.9018 -35.465 -13.1932
rtibia 106.622
rfoot -10.5871 37.4319
rtoes 1.81667
lfemur -42.0792 18.9089 -7.36901
ltibia 103.082
lfoot -13.9687 -40.4042
ltoes 13.9393
131
root -2.81888 12.4461 -2.8067 320.323 -82.1509 -339.991
lowerback 40.3256 -3.76037 -0.186334
upperback 4.1121 -6.00039 -2.77945
thorax -15.3216 -2.91001 -0.0729325
lowerneck -0.461068 1.8737 -3.87864
upperneck 1.53284 2.51983 0.623355
head 0.487272 1.23852 0.843927
rclavicle 2.5842e-014 -1.70955e-014
rhumerus 62.5763 -1.022 -98.9181
rradius 11.7569
rwrist 66.7388
rhand -18.626 13.5003
rfingers 7.12502
rthumb 7.66618 -16.3408
lclavicle 2.5842e-014 -1.70955e-014
lhumerus 68.0777 -3.56997 84.087
lradius 10.9274
lwrist -56.4206
lhand -14.2271 2.82413
lfingers 7.12502
lthumb 11.9102 32.4654
rfemur -29.4069 -34.3687 -11.815
rtibia 104.671
rfoot -11.8627 36.145
rtoes 1.13756
lfemur -41.0575 18.2357 -7.88528
ltibia 101.171
lfoot -14.7506 -39.7623
ltoes 13.6176
